<?xml version="1.0" encoding="UTF-8" standalone="no"?>
<svg
   xmlns:dc="http://purl.org/dc/elements/1.1/"
   xmlns:cc="http://creativecommons.org/ns#"
   xmlns:rdf="http://www.w3.org/1999/02/22-rdf-syntax-ns#"
   xmlns:svg="http://www.w3.org/2000/svg"
   xmlns="http://www.w3.org/2000/svg"
   xmlns:sodipodi="http://sodipodi.sourceforge.net/DTD/sodipodi-0.dtd"
   xmlns:inkscape="http://www.inkscape.org/namespaces/inkscape"
   sodipodi:docname="folder.svg"
   inkscape:version="1.0 (4035a4fb49, 2020-05-01)"
   id="svg14"
   version="1.1"
   viewBox="0 0 44.979166 44.979168"
   height="170"
   width="170">
    <path
       d="M 5.9479573,6.6145846 A 2.6458332,2.6458332 0 0 0 3.3072917,9.2604179 V 35.718751 a 2.6458332,2.6458332 0 0 0 2.6458333,2.645834 2.6458332,2.6458332 0 0 0 2.6458333,-2.645834 2.6458332,2.6458332 0 0 0 0,-0.0052 v -23.8073 h 3.9687497 1.322917 17.197916 2.645834 2.645833 A 2.6458332,2.6458332 0 0 0 33.734375,9.2604179 h -0.0052 -17.192749 A 2.6458331,2.6458331 0 0 0 13.890625,6.6145846 h -0.0052 -7.932332 a 2.6458332,2.6458332 0 0 0 -0.00517,0 z m 5.2921837,7.9374994 v 21.1615 a 2.6463257,2.6458333 0 0 1 0,0.0052 2.6463257,2.6458333 0 0 1 -2.6411827,2.645801 h 19.8437497 7.9375 2.640666 0.0052 a 2.6458333,2.6458333 0 0 0 2.645834,-2.645834 2.6458333,2.6458333 0 0 0 0,-0.0052 V 14.552084 h -5.291667 z"
       style="fill:#000000;stroke:none;stroke-width:0.465685"
       id="rect1191" />
</svg>
