<?xml version="1.0" encoding="UTF-8" standalone="no"?>
<svg
   xmlns:dc="http://purl.org/dc/elements/1.1/"
   xmlns:cc="http://creativecommons.org/ns#"
   xmlns:rdf="http://www.w3.org/1999/02/22-rdf-syntax-ns#"
   xmlns:svg="http://www.w3.org/2000/svg"
   xmlns="http://www.w3.org/2000/svg"
   xmlns:sodipodi="http://sodipodi.sourceforge.net/DTD/sodipodi-0.dtd"
   xmlns:inkscape="http://www.inkscape.org/namespaces/inkscape"
   inkscape:version="1.0 (4035a4fb49, 2020-05-01)"
   sodipodi:docname="incom.svg"
   id="svg8"
   version="1.1"
   viewBox="0 0 26.458333 26.458334"
   height="100"
   width="100">
   <path
      d="m 16.933336,4.0355674 c 0.05343,0 0.106851,0.020551 0.147795,0.061495 l 9.058878,9.0588776 c 0.08189,0.08189 0.08189,0.213702 0,0.295589 l -9.058878,9.058879 c -0.08189,0.08189 -0.213702,0.08189 -0.29559,0 l -2.498039,-2.498039 6.560841,-6.560839 c 0.08189,-0.08189 0.08189,-0.213701 0,-0.295589 L 14.287502,6.5951011 16.785541,4.0970624 c 0.04094,-0.040944 0.09436,-0.061495 0.147795,-0.061495 z"
      style="fill:#000000;stroke-width:0.116992"
      id="rect833-3-9" />
   <path
      id="rect833-3-9-7"
      style="fill:#000000;stroke-width:0.116992"
      d="m 3.7041683,4.0355674 c 0.05343,0 0.106851,0.020551 0.147795,0.061495 l 9.0588777,9.0588786 c 0.08189,0.08189 0.08189,0.213701 0,0.295589 l -9.0588777,9.058879 c -0.08189,0.08189 -0.213702,0.08189 -0.29559,0 l -2.49804,-2.498039 6.560842,-6.56084 c 0.08189,-0.08189 0.08189,-0.213701 0,-0.295589 l -6.560842,-6.5608399 2.49804,-2.4980387 c 0.04094,-0.040944 0.09436,-0.061495 0.147795,-0.061495 z" />
</svg>
