<?xml version="1.0" encoding="UTF-8" standalone="no"?>
<svg
   xmlns:dc="http://purl.org/dc/elements/1.1/"
   xmlns:cc="http://creativecommons.org/ns#"
   xmlns:rdf="http://www.w3.org/1999/02/22-rdf-syntax-ns#"
   xmlns:svg="http://www.w3.org/2000/svg"
   xmlns="http://www.w3.org/2000/svg"
   xmlns:sodipodi="http://sodipodi.sourceforge.net/DTD/sodipodi-0.dtd"
   xmlns:inkscape="http://www.inkscape.org/namespaces/inkscape"
   width="170"
   height="170"
   viewBox="0 0 44.979166 44.979168"
   version="1.1"
   id="svg1242"
   inkscape:version="1.0 (4035a4fb49, 2020-05-01)"
   sodipodi:docname="internet.svg">
   <path
   transform="scale(0.26458334)"
   d="M 82.949219 3.0058594 L 82.949219 3.03125 A 81.994045 81.994045 0 0 0 3.03125 82.951172 L 3.0058594 82.951172 L 3.0058594 84.996094 A 81.994045 81.994045 0 0 0 3.0058594 85 L 3.0058594 87.050781 L 3.03125 87.050781 A 81.994045 81.994045 0 0 0 82.949219 166.96875 L 82.949219 166.99414 L 84.914062 166.99414 L 85 166.99414 L 87.050781 166.99414 L 87.050781 166.96875 A 81.994045 81.994045 0 0 0 166.96875 87.050781 L 166.99414 87.050781 L 166.99414 85.085938 A 81.994045 81.994045 0 0 0 166.99414 85 L 166.99414 82.951172 L 166.96875 82.951172 A 81.994045 81.994045 0 0 0 87.050781 3.03125 L 87.050781 3.0058594 L 85.085938 3.0058594 L 84.916016 3.0058594 L 82.949219 3.0058594 z M 87.050781 13.779297 A 71.250092 71.250092 0 0 1 88.820312 13.853516 C 97.840853 24.285122 104.71759 36.25941 109.20508 49.099609 A 77.894343 77.894343 0 0 1 87.050781 52.933594 L 87.050781 13.779297 z M 82.935547 13.78125 A 71.250092 71.250092 0 0 1 82.949219 13.78125 L 82.949219 52.935547 A 77.894343 77.894343 0 0 1 61.087891 49.197266 C 65.576651 36.314223 72.467842 24.299236 81.517578 13.837891 A 71.250092 71.250092 0 0 1 82.935547 13.78125 z M 69.695312 15.416016 C 63.068176 25.071898 57.871635 35.58307 54.246094 46.632812 A 77.894343 77.894343 0 0 1 34.699219 34.539062 A 71.250092 71.250092 0 0 1 69.695312 15.416016 z M 100.7168 15.505859 A 71.250092 71.250092 0 0 1 135.30078 34.539062 A 77.894343 77.894343 0 0 1 116.0625 46.494141 C 112.4504 35.52898 107.28747 25.097071 100.7168 15.505859 z M 31.865234 37.537109 A 80.245557 80.245557 0 0 0 32.445312 38.044922 A 77.622825 77.622825 0 0 0 34.164062 39.582031 A 75.000094 75.000094 0 0 0 52.625 52.09375 C 49.851961 62.084548 48.321205 72.443211 48.148438 82.951172 L 13.779297 82.951172 A 71.250092 71.250092 0 0 1 31.865234 37.537109 z M 138.13867 37.539062 A 71.250092 71.250092 0 0 1 156.21875 82.951172 L 122.20508 82.951172 C 122.03149 72.391263 120.4848 61.981778 117.68555 51.945312 A 75.000094 75.000094 0 0 0 135.86328 39.560547 A 77.622825 77.622825 0 0 0 137.53516 38.066406 A 80.245557 80.245557 0 0 0 138.13867 37.539062 z M 111.04297 54.777344 C 113.67261 63.873973 115.09486 73.342384 115.27344 82.951172 L 87.050781 82.951172 L 87.050781 59.416016 A 75.000094 75.000094 0 0 0 111.04297 54.777344 z M 59.253906 54.882812 A 75.000094 75.000094 0 0 0 82.949219 59.416016 L 82.949219 82.951172 L 55.050781 82.951172 C 55.228754 73.379157 56.643318 63.947462 59.253906 54.882812 z M 13.78125 87.050781 L 48.150391 87.050781 C 48.312329 96.611529 49.586271 106.04958 51.90625 115.19922 A 75.000094 75.000094 0 0 0 36.261719 125.49805 A 77.622825 77.622825 0 0 0 34.533203 126.93359 A 80.245557 80.245557 0 0 0 33.160156 128.06641 A 80.245557 80.245557 0 0 0 33.130859 128.0918 A 81.994045 81.994045 0 0 0 30.232422 130.57227 A 71.250092 71.250092 0 0 1 13.78125 87.050781 z M 55.050781 87.050781 L 82.949219 87.050781 L 82.949219 107.5293 A 75.000094 75.000094 0 0 0 58.525391 112.32812 C 56.392314 104.12408 55.215196 95.646072 55.050781 87.050781 z M 87.050781 87.050781 L 115.27344 87.050781 C 115.10823 95.686057 113.9175 104.20374 111.76562 112.44336 A 75.000094 75.000094 0 0 0 87.050781 107.5293 L 87.050781 87.050781 z M 122.20117 87.050781 L 156.2207 87.050781 A 71.250092 71.250092 0 0 1 139.76562 130.57422 A 81.994045 81.994045 0 0 0 136.85938 128.08594 A 80.245557 80.245557 0 0 0 135.4043 126.88477 A 77.622825 77.622825 0 0 0 133.72461 125.48828 A 75.000094 75.000094 0 0 0 118.40625 115.35156 C 120.75084 106.15464 122.0383 96.664328 122.20117 87.050781 z M 82.949219 113.72461 L 82.949219 156.2207 A 71.250092 71.250092 0 0 1 81.564453 156.16797 C 71.799115 144.89543 64.535078 131.81715 60.09375 117.78906 A 77.894347 77.894347 0 0 1 82.949219 113.72461 z M 87.050781 113.72656 A 77.894347 77.894347 0 0 1 110.19531 117.89062 C 105.75328 131.87258 98.505212 144.90721 88.771484 156.14844 A 71.250092 71.250092 0 0 1 87.050781 156.21875 L 87.050781 113.72656 z M 53.351562 120.41797 C 57.0051 132.55182 62.52789 144.08477 69.751953 154.59961 A 71.250092 71.250092 0 0 1 33.039062 133.75 A 71.250096 71.250096 0 0 1 34.195312 132.54688 A 77.894347 77.894347 0 0 1 53.351562 120.41797 z M 116.95508 120.55859 A 77.894347 77.894347 0 0 1 135.80859 132.55664 A 71.250096 71.250096 0 0 1 136.95898 133.75 A 71.250092 71.250092 0 0 1 100.66797 154.5 C 107.83011 144.05286 113.31297 132.60215 116.95508 120.55859 z "
   style="fill:#000000;stroke:none;stroke-width:1.02503"
   id="path1244-63" />
</svg>
