<?xml version="1.0" encoding="UTF-8" standalone="no"?>
<svg
   xmlns:dc="http://purl.org/dc/elements/1.1/"
   xmlns:cc="http://creativecommons.org/ns#"
   xmlns:rdf="http://www.w3.org/1999/02/22-rdf-syntax-ns#"
   xmlns:svg="http://www.w3.org/2000/svg"
   xmlns="http://www.w3.org/2000/svg"
   xmlns:sodipodi="http://sodipodi.sourceforge.net/DTD/sodipodi-0.dtd"
   xmlns:inkscape="http://www.inkscape.org/namespaces/inkscape"
   width="170"
   height="170"
   viewBox="0 0 44.979166 44.979168"
   version="1.1"
   id="svg2496"
   inkscape:version="1.0 (4035a4fb49, 2020-05-01)"
   sodipodi:docname="playlist.svg">
  <path
   transform="scale(0.26458334)"
   d="M 48.238281 16.136719 A 41.924583 42.399791 0 0 0 18.601562 28.523438 A 41.924583 42.399791 0 0 0 18.570312 28.556641 A 41.924583 42.399791 0 0 0 18.070312 88.003906 C 18.086149 88.01978 18.097264 88.040275 18.113281 88.056641 L 18.570312 88.517578 L 39.615234 109.80078 C 39.751184 109.99456 39.900297 110.18156 40.072266 110.35547 L 81.576172 152.33008 C 81.799882 152.55632 82.042984 152.74555 82.298828 152.91016 C 83.94894 154.28733 86.380831 154.19528 87.925781 152.63281 L 112.7793 127.49609 L 112.89062 127.49609 L 151.42969 88.517578 L 151.88672 88.056641 C 151.90259 88.040767 151.91385 88.020272 151.92969 88.003906 A 41.924583 42.399791 0 0 0 151.42969 28.556641 A 41.924583 42.399791 0 0 0 151.39844 28.521484 A 41.924583 42.399791 0 0 0 121.75977 16.136719 A 41.924583 42.399791 0 0 0 92.248047 28.445312 C 92.24553 28.447831 92.24288 28.44855 92.240234 28.451172 L 92.138672 28.554688 L 85 35.773438 L 77.861328 28.554688 L 77.759766 28.451172 C 77.757248 28.448653 77.754599 28.447934 77.751953 28.445312 A 41.924583 42.399791 0 0 0 48.238281 16.136719 z M 51.226562 30.037109 A 30.529139 30.875183 0 0 1 51.546875 30.037109 A 30.529139 30.875183 0 0 1 73.105469 39.080078 L 85 51.109375 L 96.894531 39.080078 A 30.529139 30.875183 0 0 1 140.02734 39.037109 A 30.529139 30.875183 0 0 1 140.06836 39.080078 A 30.529139 30.875183 0 0 1 140.10938 82.701172 L 140.06836 82.744141 L 120.5918 102.44141 C 120.399 102.57505 120.21645 102.72493 120.04492 102.89844 L 84.908203 138.43359 L 70.324219 123.68164 L 70.427734 123.68164 A 30.529139 30.875183 0 0 1 69.779297 123.04492 L 29.931641 82.744141 L 29.888672 82.701172 A 30.529139 30.875183 0 0 1 29.931641 39.080078 A 30.529139 30.875183 0 0 1 29.970703 39.037109 A 30.529139 30.875183 0 0 1 51.226562 30.037109 z "
   style="fill:#000000;stroke:none;stroke-width:8;stroke-miterlimit:4;stroke-dasharray:none;stroke-opacity:1"
   id="rect2498" />
</svg>
