<?xml version="1.0" encoding="UTF-8" standalone="no"?>
<svg
   xmlns:dc="http://purl.org/dc/elements/1.1/"
   xmlns:cc="http://creativecommons.org/ns#"
   xmlns:rdf="http://www.w3.org/1999/02/22-rdf-syntax-ns#"
   xmlns:svg="http://www.w3.org/2000/svg"
   xmlns="http://www.w3.org/2000/svg"
   xmlns:sodipodi="http://sodipodi.sourceforge.net/DTD/sodipodi-0.dtd"
   xmlns:inkscape="http://www.inkscape.org/namespaces/inkscape"
   inkscape:version="1.0 (4035a4fb49, 2020-05-01)"
   sodipodi:docname="prev.svg"
   id="svg8"
   version="1.1"
   viewBox="0 0 26.458333 26.458334"
   height="100"
   width="100">
   <path
      d="m 9.2680887,3.96875 c -0.053434,0 -0.1068504,0.020551 -0.1477944,0.061495 l -9.05887841,9.058878 c -0.0818879,0.08189 -0.0818878,0.213702 0,0.295589 l 9.05887841,9.058879 c 0.081888,0.08189 0.2137014,0.08189 0.2955894,0 L 11.913923,19.945552 5.3530825,13.384713 c -0.081888,-0.08189 -0.081888,-0.213701 0,-0.295589 L 11.913923,6.5282837 9.4158837,4.030245 C 9.3749437,3.989301 9.3215237,3.96875 9.2680887,3.96875 Z"
      style="fill:#000000;stroke-width:0.116992"
      id="rect833-3-9" />
   <path
      id="rect833-3-9-7"
      style="fill:#000000;stroke-width:0.116992"
      d="m 22.497257,3.96875 c -0.05343,0 -0.106851,0.020551 -0.147795,0.061495 l -9.058878,9.058879 c -0.08189,0.08189 -0.08189,0.213701 0,0.295589 l 9.058878,9.058879 c 0.08189,0.08189 0.213702,0.08189 0.29559,0 l 2.49804,-2.498039 -6.560842,-6.56084 c -0.08189,-0.08189 -0.08189,-0.213701 0,-0.295589 L 25.143092,6.5282837 22.645052,4.030245 C 22.604112,3.989301 22.550692,3.96875 22.497257,3.96875 Z" />
</svg>
