<?xml version="1.0" encoding="UTF-8" standalone="no"?>
<svg
   xmlns:dc="http://purl.org/dc/elements/1.1/"
   xmlns:cc="http://creativecommons.org/ns#"
   xmlns:rdf="http://www.w3.org/1999/02/22-rdf-syntax-ns#"
   xmlns:svg="http://www.w3.org/2000/svg"
   xmlns="http://www.w3.org/2000/svg"
   xmlns:sodipodi="http://sodipodi.sourceforge.net/DTD/sodipodi-0.dtd"
   xmlns:inkscape="http://www.inkscape.org/namespaces/inkscape"
   sodipodi:docname="рисунок.svg"
   inkscape:version="1.0 (4035a4fb49, 2020-05-01)"
   id="svg16"
   version="1.1"
   viewBox="0 0 44.979166 44.979166"
   height="170"
   width="170">
   <path
      d="m 20.724783,1.3827716 c -1.357063,0 -2.08649,1.1214951 -2.449681,2.4054403 -0.444555,1.5715906 -0.827297,3.1369824 -1.15463,4.6967431 a 15.239339,14.964151 0 0 0 -4.329693,2.462296 C 11.249012,10.43899 9.6872964,9.9747148 8.1043801,9.5566584 6.7938966,9.2105506 5.4365935,9.2830759 4.7580629,10.437105 l -1.7653302,3.002496 c -0.6785317,1.15403 -0.060512,2.341235 0.8966405,3.285892 1.1607807,1.145641 2.3509333,2.245653 3.5683693,3.30332 a 15.239339,14.964151 0 0 0 -0.2076327,2.460767 15.239339,14.964151 0 0 0 0.2094087,2.471878 c -1.219509,1.057191 -2.4101176,2.153546 -3.5705893,3.290905 -0.9604883,0.94136 -1.5751712,2.131653 -0.8966405,3.28567 l 1.7653292,3.002721 c 0.6785296,1.154025 2.0346117,1.222054 3.3463182,0.880448 1.5900975,-0.41411 3.1546199,-0.876055 4.6954929,-1.382318 a 15.239339,14.964151 0 0 0 4.358091,2.46883 c 0.322741,1.566147 0.694594,3.127442 1.117582,4.683457 0.349992,1.287473 1.092618,2.405223 2.449681,2.405223 h 3.530659 c 1.35706,0 2.095103,-1.118956 2.449678,-2.405223 0.430193,-1.560601 0.805561,-3.123435 1.129785,-4.68825 a 15.239339,14.964151 0 0 0 4.327472,-2.450094 c 1.541793,0.50418 3.112358,0.963697 4.714574,1.374042 1.313133,0.336302 2.667557,0.273572 3.346095,-0.880455 l 1.765329,-3.002501 c 0.678537,-1.154025 0.05436,-2.334846 -0.896415,-3.285672 -1.164299,-1.164356 -2.35409,-2.273124 -3.566598,-3.331849 A 15.239339,14.964151 0 0 0 37.72878,22.48958 15.239339,14.964151 0 0 0 37.523365,20.041011 c 1.215183,-1.058809 2.405442,-2.164371 3.568148,-3.321398 0.95317,-0.948519 1.575172,-2.131643 0.896639,-3.285673 L 40.222604,10.431221 C 39.544067,9.2771959 38.19048,9.2178761 36.876504,9.5509934 35.266733,9.9591054 33.693286,10.416574 32.15262,10.918495 A 15.239339,14.964151 0 0 0 27.850209,8.481907 C 27.524002,6.9195293 27.144107,5.3550979 26.70512,3.7882119 26.345152,2.5033869 25.612502,1.3827716 24.255442,1.3827716 Z m 1.750021,14.4607524 a 6.7681951,6.6459767 0 0 1 0.0147,0 6.7681951,6.6459767 0 0 1 6.76828,6.646056 6.7681951,6.6459767 0 0 1 -6.768278,6.645843 6.7681951,6.6459767 0 0 1 -6.768063,-6.645843 6.7681951,6.6459767 0 0 1 6.753421,-6.646056 z"
      style="fill:#000000;stroke:#000000;stroke-width:0.11971;stroke-opacity:1"
      id="rect1025" />
</svg>
