<?xml version="1.0" encoding="UTF-8" standalone="no"?>
<svg
   xmlns:dc="http://purl.org/dc/elements/1.1/"
   xmlns:cc="http://creativecommons.org/ns#"
   xmlns:rdf="http://www.w3.org/1999/02/22-rdf-syntax-ns#"
   xmlns:svg="http://www.w3.org/2000/svg"
   xmlns="http://www.w3.org/2000/svg"
   xmlns:sodipodi="http://sodipodi.sourceforge.net/DTD/sodipodi-0.dtd"
   xmlns:inkscape="http://www.inkscape.org/namespaces/inkscape"
   inkscape:version="1.0 (4035a4fb49, 2020-05-01)"
   sodipodi:docname="vol0.svg"
   id="svg8"
   version="1.1"
   viewBox="0 0 26.458333 26.458334"
   height="100"
   width="100">
  <defs
     id="defs2" />
  <sodipodi:namedview
     inkscape:snap-nodes="false"
     inkscape:snap-object-midpoints="true"
     inkscape:window-maximized="1"
     inkscape:window-y="-4"
     inkscape:window-x="-4"
     inkscape:window-height="718"
     inkscape:window-width="1366"
     units="px"
     showgrid="false"
     inkscape:document-rotation="0"
     inkscape:current-layer="layer1"
     inkscape:document-units="mm"
     inkscape:cy="29.922614"
     inkscape:cx="28.5686"
     inkscape:zoom="2.6056885"
     inkscape:pageshadow="2"
     inkscape:pageopacity="0.0"
     borderopacity="1.0"
     bordercolor="#666666"
     pagecolor="#ffffff"
     id="base" />
  <metadata
     id="metadata5">
    <rdf:RDF>
      <cc:Work
         rdf:about="">
        <dc:format>image/svg+xml</dc:format>
        <dc:type
           rdf:resource="http://purl.org/dc/dcmitype/StillImage" />
        <dc:title></dc:title>
      </cc:Work>
    </rdf:RDF>
  </metadata>
  <g
     id="layer1"
     inkscape:groupmode="layer"
     inkscape:label="Слой 1">
    <path
       d="M 15.771312,6 8.0952953,10.431771 H 3.1715638 C 3.0764752,10.431771 3,10.50632 3,10.598169 v 6.056995 c 0,0.09185 0.076478,0.165881 0.1715638,0.165881 h 4.8839405 l 7.7158077,4.454509 z M 14.448396,8.2913329 V 18.984221 l -3.747058,-2.163176 h 0.01137 l -0.32763,-0.182934 -1.8970418,-1.095024 c -0.0036,0.01084 -0.01282,0.01771 -0.01912,0.02687 l -0.047542,-0.02687 H 4.4257523 c -0.057049,0 -0.1028357,-0.04411 -0.1028357,-0.09922 v -3.634403 c 0,-0.05511 0.045778,-0.09974 0.1028357,-0.09974 h 3.8416253 0.1271241 v -0.001 h 0.1348756 z m 2.768306,0.9172567 -0.93586,0.9353434 3.274219,3.273702 -3.274219,3.274218 0.93586,0.935344 3.273702,-3.273701 3.274219,3.2737 0.935343,-0.935343 -3.274219,-3.274219 3.274219,-3.273701 -0.935343,-0.9353434 -3.274219,3.2737014 z M 12.260415,11.52111 c -0.0011,5.55e-4 -0.0021,9.12e-4 -0.0026,0.001 8.47e-4,0.0021 0.0017,0.0045 0.0026,0.0067 z"
       inkscape:transform-center-x="2.2048609"
       style="fill:#000000;stroke-width:0.107794"
       id="path918-9" />
    <path
       d="m 45.421186,22.95729 -7.676017,4.431771 h -4.92373 c -0.09509,0 -0.171565,0.07455 -0.171566,0.166398 v 6.056994 c 0,0.09185 0.07648,0.165882 0.171566,0.165882 h 4.883939 l 7.715808,4.454508 z m 0.536402,0.406694 v 1.451074 a 5.7406791,5.7406791 0 0 1 4.778002,5.659602 5.7406791,5.7406791 0 0 1 -4.778002,5.659087 v 1.45159 A 7.1758494,7.1758494 0 0 0 52.171162,30.47466 7.1758494,7.1758494 0 0 0 45.957588,23.363984 Z M 44.09827,25.248623 V 35.94151 l -3.747059,-2.163175 h 0.01137 L 40.034952,33.5954 38.13791,32.500377 c -0.0036,0.01084 -0.01282,0.01771 -0.01912,0.02687 l -0.04754,-0.02687 h -3.995622 c -0.05705,0 -0.102836,-0.04411 -0.102836,-0.09922 v -3.634404 c 0,-0.05511 0.04578,-0.09974 0.102836,-0.09974 h 3.841626 0.127124 v -0.001 h 0.134875 z m 1.859318,0.04909 v 1.340487 a 3.946885,3.946885 0 0 1 3.076298,3.849377 3.946885,3.946885 0 0 1 -3.076298,3.849377 v 1.340487 a 5.2625138,5.2625138 0 0 0 4.39198,-5.189864 5.2625138,5.2625138 0 0 0 -4.39198,-5.189864 z m 0,1.857767 v 1.369942 a 1.984375,1.984375 0 0 1 1.315682,1.86862 1.984375,1.984375 0 0 1 -1.315682,1.86862 v 1.370459 a 3.3072916,3.3072916 0 0 0 2.638598,-3.239079 3.3072916,3.3072916 0 0 0 -2.638598,-3.238562 z M 41.91029,28.4784 c -0.0011,5.55e-4 -0.0021,9.06e-4 -0.0026,10e-4 8.46e-4,0.0021 0.0017,0.0045 0.0026,0.0067 z"
       style="fill:#000000;stroke-width:0.1;stroke-miterlimit:4;stroke-dasharray:none"
       id="rect1000-1" />
    <path
       d="m 30.799331,-15.729701 -7.676017,4.431771 h -4.92373 c -0.09509,0 -0.171565,0.07455 -0.171566,0.166398 v 6.0569934 c 0,0.09185 0.07648,0.165882 0.171566,0.165882 h 4.883939 l 7.715808,4.45450801 z m -1.322916,2.291333 v 10.6928864 l -3.747058,-2.163176 h 0.01137 l -0.32763,-0.182934 -1.897042,-1.095024 c -0.0036,0.01084 -0.01282,0.01771 -0.01912,0.02687 l -0.04754,-0.02687 h -3.995621 c -0.05705,0 -0.102836,-0.04411 -0.102836,-0.09922 v -3.634403 c 0,-0.05511 0.04578,-0.09974 0.102836,-0.09974 h 3.841626 0.127124 v -0.001 h 0.134875 z m 1.859834,1.90686 v 1.369941 a 1.984375,1.984375 0 0 1 1.315682,1.8686204 1.984375,1.984375 0 0 1 -1.315682,1.86862 v 1.370459 a 3.3072916,3.3072916 0 0 0 2.638599,-3.239079 3.3072916,3.3072916 0 0 0 -2.638599,-3.2385614 z m -4.047814,1.322916 c -0.0011,5.55e-4 -0.0021,9.06e-4 -0.0026,10e-4 8.47e-4,0.0021 0.0017,0.0045 0.0026,0.0067 z"
       style="fill:#000000;stroke-width:0.1;stroke-miterlimit:4;stroke-dasharray:none"
       id="rect1000-1-1" />
    <path
       d="m -12.25391,15.747904 -7.676017,4.431771 h -4.92373 c -0.09509,0 -0.171565,0.07455 -0.171566,0.166398 v 6.056995 c 0,0.09185 0.07648,0.165881 0.171566,0.165881 h 4.88394 l 7.715807,4.454508 z m -1.322916,2.291332 v 10.692888 l -3.747058,-2.163175 h 0.01137 l -0.32763,-0.182935 -1.897042,-1.095023 c -0.0036,0.01084 -0.01282,0.01771 -0.01912,0.02687 l -0.04754,-0.02687 h -3.995621 c -0.05705,0 -0.102836,-0.04411 -0.102836,-0.09922 v -3.634404 c 0,-0.05511 0.04578,-0.09974 0.102836,-0.09974 h 3.841626 0.127124 v -5.17e-4 h 0.134875 z m 1.859834,0.04961 v 1.340488 a 3.946885,3.946885 0 0 1 3.0762984,3.849377 3.946885,3.946885 0 0 1 -3.0762984,3.849378 v 1.340486 a 5.2625138,5.2625138 0 0 0 4.3919804,-5.189864 5.2625138,5.2625138 0 0 0 -4.3919804,-5.189865 z m 0,1.857769 v 1.369942 a 1.984375,1.984375 0 0 1 1.315682,1.86862 1.984375,1.984375 0 0 1 -1.315682,1.86862 v 1.370459 a 3.3072916,3.3072916 0 0 0 2.6385994,-3.239079 3.3072916,3.3072916 0 0 0 -2.6385994,-3.238562 z m -4.047814,1.3224 c -0.0011,5.55e-4 -0.0021,9.07e-4 -0.0026,0.001 8.46e-4,0.0021 0.0017,0.0045 0.0026,0.0067 z"
       style="fill:#000000;stroke-width:0.1;stroke-miterlimit:4;stroke-dasharray:none"
       id="rect1000-1-19" />
  </g>
</svg>
