<?xml version="1.0" encoding="UTF-8" standalone="no"?>
<svg
   xmlns:dc="http://purl.org/dc/elements/1.1/"
   xmlns:cc="http://creativecommons.org/ns#"
   xmlns:rdf="http://www.w3.org/1999/02/22-rdf-syntax-ns#"
   xmlns:svg="http://www.w3.org/2000/svg"
   xmlns="http://www.w3.org/2000/svg"
   xmlns:sodipodi="http://sodipodi.sourceforge.net/DTD/sodipodi-0.dtd"
   xmlns:inkscape="http://www.inkscape.org/namespaces/inkscape"
   inkscape:version="1.0 (4035a4fb49, 2020-05-01)"
   sodipodi:docname="vol3.svg"
   id="svg8"
   version="1.1"
   viewBox="0 0 26.458333 26.458334"
   height="100"
   width="100">
  <defs
     id="defs2" />
  <sodipodi:namedview
     inkscape:snap-nodes="false"
     inkscape:snap-object-midpoints="true"
     inkscape:window-maximized="1"
     inkscape:window-y="-4"
     inkscape:window-x="-4"
     inkscape:window-height="718"
     inkscape:window-width="1366"
     units="px"
     showgrid="false"
     inkscape:document-rotation="0"
     inkscape:current-layer="layer1"
     inkscape:document-units="mm"
     inkscape:cy="29.922614"
     inkscape:cx="28.5686"
     inkscape:zoom="2.6056885"
     inkscape:pageshadow="2"
     inkscape:pageopacity="0.0"
     borderopacity="1.0"
     bordercolor="#666666"
     pagecolor="#ffffff"
     id="base" />
  <metadata
     id="metadata5">
    <rdf:RDF>
      <cc:Work
         rdf:about="">
        <dc:format>image/svg+xml</dc:format>
        <dc:type
           rdf:resource="http://purl.org/dc/dcmitype/StillImage" />
        <dc:title></dc:title>
      </cc:Work>
    </rdf:RDF>
  </metadata>
  <g
     id="layer1"
     inkscape:groupmode="layer"
     inkscape:label="Слой 1">
    <path
       transform="scale(0.26458333)"
       d="M -58.132812 -56.0625 L -87.144531 -39.3125 L -105.75391 -39.3125 C -106.1133 -39.3125 -106.40234 -39.03074 -106.40234 -38.683594 L -106.40234 -15.791016 C -106.40234 -15.443866 -106.11329 -15.164062 -105.75391 -15.164062 L -87.294922 -15.164062 L -58.132812 1.671875 L -58.132812 -56.0625 z M -63.132812 -47.402344 L -63.132812 -6.9882812 L -77.294922 -15.164062 L -77.251953 -15.164062 L -78.490234 -15.855469 L -85.660156 -19.994141 C -85.673763 -19.953171 -85.708611 -19.927199 -85.732422 -19.892578 L -85.912109 -19.994141 L -101.01367 -19.994141 C -101.22929 -19.994141 -101.40234 -20.160851 -101.40234 -20.369141 L -101.40234 -34.105469 C -101.40234 -34.313759 -101.22932 -34.482422 -101.01367 -34.482422 L -86.494141 -34.482422 L -86.013672 -34.482422 L -86.013672 -34.486328 L -85.503906 -34.486328 L -63.132812 -47.402344 z M -52.669922 -43.935547 L -56.207031 -40.400391 L -43.832031 -28.027344 L -56.207031 -15.652344 L -52.669922 -12.117188 L -40.296875 -24.490234 L -27.921875 -12.117188 L -24.386719 -15.652344 L -36.761719 -28.027344 L -24.386719 -40.400391 L -27.921875 -43.935547 L -40.296875 -31.5625 L -52.669922 -43.935547 z M -71.402344 -35.195312 C -71.406501 -35.193215 -71.41022 -35.191864 -71.412109 -35.191406 C -71.408908 -35.183469 -71.405745 -35.174331 -71.402344 -35.166016 L -71.402344 -35.195312 z "
       inkscape:transform-center-x="2.2048609"
       style="fill:#000000;stroke-width:0.40741"
       id="path918-9" />
    <path
       d="M 15.771313,6 8.095296,10.431771 H 3.1715656 c -0.09509,0 -0.1715648,0.07455 -0.1715656,0.166398 v 6.056994 c 0,0.09185 0.07648,0.165882 0.1715656,0.165882 h 4.8839395 l 7.7158079,4.454508 z m 0.536402,0.4066934 v 1.4510742 a 5.7406791,5.7406791 0 0 1 4.778002,5.6596024 5.7406791,5.7406791 0 0 1 -4.778002,5.659087 v 1.45159 A 7.1758494,7.1758494 0 0 0 22.521289,13.51737 7.1758494,7.1758494 0 0 0 16.307715,6.4066934 Z M 14.448397,8.2913329 V 18.98422 l -3.747059,-2.163175 h 0.01137 L 10.385079,16.63811 8.4880369,15.543087 c -0.0036,0.01084 -0.01282,0.01771 -0.01912,0.02687 l -0.047542,-0.02687 H 4.4257525 c -0.05705,0 -0.1028359,-0.04411 -0.1028359,-0.09922 v -3.634404 c 0,-0.05511 0.04578,-0.09974 0.1028359,-0.09974 h 3.8416261 0.1271239 v -10e-4 h 0.1348756 z m 1.859318,0.049093 v 1.3404866 a 3.946885,3.946885 0 0 1 3.076298,3.8493775 3.946885,3.946885 0 0 1 -3.076298,3.849377 v 1.340487 a 5.2625138,5.2625138 0 0 0 4.39198,-5.189864 5.2625138,5.2625138 0 0 0 -4.39198,-5.1898641 z m 0,1.8577671 v 1.369942 a 1.984375,1.984375 0 0 1 1.315682,1.86862 1.984375,1.984375 0 0 1 -1.315682,1.86862 v 1.370459 a 3.3072916,3.3072916 0 0 0 2.638598,-3.239079 3.3072916,3.3072916 0 0 0 -2.638598,-3.238562 z m -4.047298,1.322917 c -0.0011,5.55e-4 -0.0021,9.06e-4 -0.0026,10e-4 8.46e-4,0.0021 0.0017,0.0045 0.0026,0.0067 z"
       style="fill:#000000;stroke-width:0.1;stroke-miterlimit:4;stroke-dasharray:none"
       id="rect1000-1" />
    <path
       transform="scale(0.26458333)"
       d="M 70.863281 -64.173828 L 41.851562 -47.423828 L 23.242188 -47.423828 C 22.882792 -47.423828 22.593754 -47.14206 22.59375 -46.794922 L 22.59375 -23.902344 C 22.59375 -23.555194 22.882807 -23.275391 23.242188 -23.275391 L 41.701172 -23.275391 L 70.863281 -6.4394531 L 70.863281 -64.173828 z M 65.863281 -55.513672 L 65.863281 -15.099609 L 51.701172 -23.275391 L 51.744141 -23.275391 L 50.505859 -23.966797 L 43.335938 -28.105469 C 43.322331 -28.064499 43.287483 -28.038527 43.263672 -28.003906 L 43.083984 -28.105469 L 27.982422 -28.105469 C 27.7668 -28.105469 27.59375 -28.272179 27.59375 -28.480469 L 27.59375 -42.216797 C 27.59375 -42.425087 27.766777 -42.59375 27.982422 -42.59375 L 42.501953 -42.59375 L 42.982422 -42.59375 L 42.982422 -42.597656 L 43.492188 -42.597656 L 65.863281 -55.513672 z M 72.892578 -48.306641 L 72.892578 -43.128906 A 7.5 7.5 0 0 1 77.865234 -36.066406 A 7.5 7.5 0 0 1 72.892578 -29.003906 L 72.892578 -23.824219 A 12.5 12.5 0 0 0 82.865234 -36.066406 A 12.5 12.5 0 0 0 72.892578 -48.306641 z M 57.59375 -43.306641 C 57.589593 -43.304543 57.585874 -43.303214 57.583984 -43.302734 C 57.587186 -43.294797 57.590348 -43.285659 57.59375 -43.277344 L 57.59375 -43.306641 z "
       style="fill:#000000;stroke-width:0.377953;stroke-miterlimit:4;stroke-dasharray:none"
       id="rect1000-1-1" />
    <path
       transform="scale(0.26458333)"
       d="M -43.501953 28.314453 L -72.513672 45.064453 L -91.123047 45.064453 C -91.482442 45.064453 -91.771481 45.346217 -91.771484 45.693359 L -91.771484 68.585938 C -91.771484 68.933087 -91.482427 69.212891 -91.123047 69.212891 L -72.664062 69.212891 L -43.501953 86.048828 L -43.501953 28.314453 z M -48.501953 36.974609 L -48.501953 77.388672 L -62.664062 69.212891 L -62.621094 69.212891 L -63.859375 68.521484 L -71.029297 64.382812 C -71.042903 64.423783 -71.077751 64.449755 -71.101562 64.484375 L -71.28125 64.382812 L -86.382812 64.382812 C -86.598435 64.382812 -86.771484 64.216102 -86.771484 64.007812 L -86.771484 50.271484 C -86.771484 50.063195 -86.598457 49.894531 -86.382812 49.894531 L -71.863281 49.894531 L -71.382812 49.894531 L -71.382812 49.892578 L -70.873047 49.892578 L -48.501953 36.974609 z M -41.472656 37.162109 L -41.472656 42.228516 A 14.917361 14.917361 0 0 1 -29.845703 56.777344 A 14.917361 14.917361 0 0 1 -41.472656 71.326172 L -41.472656 76.392578 A 19.889816 19.889816 0 0 0 -24.873047 56.777344 A 19.889816 19.889816 0 0 0 -41.472656 37.162109 z M -41.472656 44.183594 L -41.472656 49.361328 A 7.5 7.5 0 0 1 -36.5 56.423828 A 7.5 7.5 0 0 1 -41.472656 63.486328 L -41.472656 68.666016 A 12.5 12.5 0 0 0 -31.5 56.423828 A 12.5 12.5 0 0 0 -41.472656 44.183594 z M -56.771484 49.181641 C -56.775642 49.183738 -56.77936 49.185067 -56.78125 49.185547 C -56.778053 49.193484 -56.774886 49.202623 -56.771484 49.210938 L -56.771484 49.181641 z "
       style="fill:#000000;stroke-width:0.377953;stroke-miterlimit:4;stroke-dasharray:none"
       id="rect1000-1-19" />
  </g>
</svg>
