<?xml version="1.0" encoding="UTF-8" standalone="no"?>
<svg
   xmlns:dc="http://purl.org/dc/elements/1.1/"
   xmlns:cc="http://creativecommons.org/ns#"
   xmlns:rdf="http://www.w3.org/1999/02/22-rdf-syntax-ns#"
   xmlns:svg="http://www.w3.org/2000/svg"
   xmlns="http://www.w3.org/2000/svg"
   xmlns:sodipodi="http://sodipodi.sourceforge.net/DTD/sodipodi-0.dtd"
   xmlns:inkscape="http://www.inkscape.org/namespaces/inkscape"
   inkscape:version="1.0 (4035a4fb49, 2020-05-01)"
   sodipodi:docname="1.svg"
   id="svg8"
   version="1.1"
   viewBox="0 0 26.458333 26.458334"
   height="100"
   width="100">
   <path
      transform="scale(0.26458333)"
      d="M -58.132812 -56.0625 L -87.144531 -39.3125 L -105.75391 -39.3125 C -106.1133 -39.3125 -106.40234 -39.03074 -106.40234 -38.683594 L -106.40234 -15.791016 C -106.40234 -15.443866 -106.11329 -15.164062 -105.75391 -15.164062 L -87.294922 -15.164062 L -58.132812 1.671875 L -58.132812 -56.0625 z M -63.132812 -47.402344 L -63.132812 -6.9882812 L -77.294922 -15.164062 L -77.251953 -15.164062 L -78.490234 -15.855469 L -85.660156 -19.994141 C -85.673763 -19.953171 -85.708611 -19.927199 -85.732422 -19.892578 L -85.912109 -19.994141 L -101.01367 -19.994141 C -101.22929 -19.994141 -101.40234 -20.160851 -101.40234 -20.369141 L -101.40234 -34.105469 C -101.40234 -34.313759 -101.22932 -34.482422 -101.01367 -34.482422 L -86.494141 -34.482422 L -86.013672 -34.482422 L -86.013672 -34.486328 L -85.503906 -34.486328 L -63.132812 -47.402344 z M -52.669922 -43.935547 L -56.207031 -40.400391 L -43.832031 -28.027344 L -56.207031 -15.652344 L -52.669922 -12.117188 L -40.296875 -24.490234 L -27.921875 -12.117188 L -24.386719 -15.652344 L -36.761719 -28.027344 L -24.386719 -40.400391 L -27.921875 -43.935547 L -40.296875 -31.5625 L -52.669922 -43.935547 z M -71.402344 -35.195312 C -71.406501 -35.193215 -71.41022 -35.191864 -71.412109 -35.191406 C -71.408908 -35.183469 -71.405745 -35.174331 -71.402344 -35.166016 L -71.402344 -35.195312 z "
      inkscape:transform-center-x="2.2048609"
      style="fill:#ff0000;stroke-width:0.40741"
      id="path918-9" />
   <path
      d="m 45.421186,22.95729 -7.676017,4.431771 h -4.92373 c -0.09509,0 -0.171565,0.07455 -0.171566,0.166398 v 6.056994 c 0,0.09185 0.07648,0.165882 0.171566,0.165882 h 4.883939 l 7.715808,4.454508 z m 0.536402,0.406694 v 1.451074 a 5.7406791,5.7406791 0 0 1 4.778002,5.659602 5.7406791,5.7406791 0 0 1 -4.778002,5.659087 v 1.45159 A 7.1758494,7.1758494 0 0 0 52.171162,30.47466 7.1758494,7.1758494 0 0 0 45.957588,23.363984 Z M 44.09827,25.248623 V 35.94151 l -3.747059,-2.163175 h 0.01137 L 40.034952,33.5954 38.13791,32.500377 c -0.0036,0.01084 -0.01282,0.01771 -0.01912,0.02687 l -0.04754,-0.02687 h -3.995622 c -0.05705,0 -0.102836,-0.04411 -0.102836,-0.09922 v -3.634404 c 0,-0.05511 0.04578,-0.09974 0.102836,-0.09974 h 3.841626 0.127124 v -0.001 h 0.134875 z m 1.859318,0.04909 v 1.340487 a 3.946885,3.946885 0 0 1 3.076298,3.849377 3.946885,3.946885 0 0 1 -3.076298,3.849377 v 1.340487 a 5.2625138,5.2625138 0 0 0 4.39198,-5.189864 5.2625138,5.2625138 0 0 0 -4.39198,-5.189864 z m 0,1.857767 v 1.369942 a 1.984375,1.984375 0 0 1 1.315682,1.86862 1.984375,1.984375 0 0 1 -1.315682,1.86862 v 1.370459 a 3.3072916,3.3072916 0 0 0 2.638598,-3.239079 3.3072916,3.3072916 0 0 0 -2.638598,-3.238562 z M 41.91029,28.4784 c -0.0011,5.55e-4 -0.0021,9.06e-4 -0.0026,10e-4 8.46e-4,0.0021 0.0017,0.0045 0.0026,0.0067 z"
      style="fill:#ff0000;stroke-width:0.1;stroke-miterlimit:4;stroke-dasharray:none"
      id="rect1000-1" />
   <path
      d="M 15.771313,6 8.095296,10.431771 H 3.1715659 c -0.09509,0 -0.1715648,0.07455 -0.1715659,0.166398 v 6.056994 c 0,0.09185 0.07648,0.165882 0.1715659,0.165882 h 4.8839394 l 7.7158077,4.454508 z M 14.448397,8.291333 V 18.98422 l -3.747058,-2.163176 h 0.01137 L 10.385079,16.63811 8.4880372,15.543086 c -0.0036,0.01084 -0.01282,0.01771 -0.01912,0.02687 l -0.047543,-0.02687 H 4.4257528 c -0.05705,0 -0.1028361,-0.04411 -0.1028361,-0.09922 v -3.634403 c 0,-0.05511 0.04578,-0.09974 0.1028361,-0.09974 h 3.8416258 0.1271241 v -10e-4 h 0.1348756 z m 1.859834,1.90686 v 1.369942 a 1.984375,1.984375 0 0 1 1.315682,1.86862 1.984375,1.984375 0 0 1 -1.315682,1.86862 v 1.370459 a 3.3072916,3.3072916 0 0 0 2.638599,-3.239079 3.3072916,3.3072916 0 0 0 -2.638599,-3.238562 z m -4.047814,1.322917 c -0.0011,5.55e-4 -0.0021,9.06e-4 -0.0026,10e-4 8.47e-4,0.0021 0.0017,0.0045 0.0026,0.0067 z"
      style="fill:#ff0000;stroke-width:0.1;stroke-miterlimit:4;stroke-dasharray:none"
      id="rect1000-1-1" />
   <path
      d="m -12.25391,15.747904 -7.676017,4.431771 h -4.92373 c -0.09509,0 -0.171565,0.07455 -0.171566,0.166398 v 6.056995 c 0,0.09185 0.07648,0.165881 0.171566,0.165881 h 4.88394 l 7.715807,4.454508 z m -1.322916,2.291332 v 10.692888 l -3.747058,-2.163175 h 0.01137 l -0.32763,-0.182935 -1.897042,-1.095023 c -0.0036,0.01084 -0.01282,0.01771 -0.01912,0.02687 l -0.04754,-0.02687 h -3.995621 c -0.05705,0 -0.102836,-0.04411 -0.102836,-0.09922 v -3.634404 c 0,-0.05511 0.04578,-0.09974 0.102836,-0.09974 h 3.841626 0.127124 v -5.17e-4 h 0.134875 z m 1.859834,0.04961 v 1.340488 a 3.946885,3.946885 0 0 1 3.0762984,3.849377 3.946885,3.946885 0 0 1 -3.0762984,3.849378 v 1.340486 a 5.2625138,5.2625138 0 0 0 4.3919804,-5.189864 5.2625138,5.2625138 0 0 0 -4.3919804,-5.189865 z m 0,1.857769 v 1.369942 a 1.984375,1.984375 0 0 1 1.315682,1.86862 1.984375,1.984375 0 0 1 -1.315682,1.86862 v 1.370459 a 3.3072916,3.3072916 0 0 0 2.6385994,-3.239079 3.3072916,3.3072916 0 0 0 -2.6385994,-3.238562 z m -4.047814,1.3224 c -0.0011,5.55e-4 -0.0021,9.07e-4 -0.0026,0.001 8.46e-4,0.0021 0.0017,0.0045 0.0026,0.0067 z"
      style="fill:#ff0000;stroke-width:0.1;stroke-miterlimit:4;stroke-dasharray:none"
      id="rect1000-1-19" />
</svg>
